<svg width="24" height="24" viewBox="0 0 24 24" fill="none" xmlns="http://www.w3.org/2000/svg">
<g clip-path="url(#clip0_34_457)">
<path d="M0.78 16.3529C0.793125 16.5179 0.91275 16.6548 1.07475 16.6896L2.38162 16.9716C2.42775 17.1944 2.48625 17.4141 2.55712 17.6286L1.56788 18.5249C1.44525 18.6359 1.41 18.8144 1.48125 18.964C1.662 19.3443 1.86337 19.6956 2.07975 20.0084C2.1735 20.1441 2.34525 20.2026 2.50313 20.152L3.77325 19.7429C3.92513 19.9131 4.08675 20.0748 4.257 20.2266L3.84787 21.4968C3.79725 21.6539 3.85538 21.826 3.9915 21.9201C4.30425 22.1365 4.65562 22.3379 5.03587 22.5186C5.18587 22.5899 5.364 22.5543 5.475 22.432L6.37125 21.4428C6.58612 21.5133 6.80587 21.5721 7.02863 21.6183L7.31063 22.9251C7.3455 23.0868 7.48238 23.2064 7.647 23.2199C7.8465 23.2356 8.04637 23.2499 8.25 23.2499C8.45363 23.2499 8.6535 23.2356 8.853 23.2199C9.018 23.2068 9.15487 23.0871 9.18975 22.9251L9.47175 21.6183C9.6945 21.5721 9.91463 21.5136 10.1291 21.4428L11.0254 22.432C11.1367 22.5546 11.3153 22.5903 11.4645 22.5186C11.8448 22.3379 12.1961 22.1361 12.5089 21.9201C12.645 21.826 12.7031 21.6539 12.6525 21.4968L12.2434 20.2266C12.4136 20.0748 12.5752 19.9131 12.7271 19.7433L13.9972 20.1524C14.1544 20.2034 14.3265 20.1449 14.4206 20.0088C14.637 19.696 14.8384 19.3446 15.0191 18.9644C15.0904 18.8148 15.0551 18.6363 14.9325 18.5253L13.9432 17.629C14.0138 17.4141 14.0726 17.1944 14.1188 16.9716L15.4256 16.6896C15.5872 16.6548 15.7069 16.5179 15.7204 16.3533C15.7358 16.1534 15.75 15.9535 15.75 15.7499C15.75 15.5463 15.7357 15.3464 15.72 15.1469C15.7069 14.9819 15.5872 14.845 15.4252 14.8101L14.1184 14.5281C14.0722 14.3054 14.0138 14.0853 13.9429 13.8708L14.9321 12.9745C15.0548 12.8635 15.09 12.685 15.0187 12.5354C14.838 12.1551 14.6362 11.8038 14.4202 11.491C14.3261 11.3549 14.154 11.2964 13.9969 11.3474L12.7267 11.7565C12.5749 11.5863 12.4132 11.4246 12.243 11.2728L12.6521 10.0026C12.7027 9.84552 12.6446 9.6734 12.5085 9.57927C12.1957 9.3629 11.8444 9.16152 11.4641 8.98077C11.3141 8.90915 11.136 8.94477 11.025 9.0674L10.1287 10.0566C9.91387 9.98615 9.69413 9.92727 9.47137 9.88115L9.18937 8.57427C9.1545 8.41265 9.01762 8.29302 8.853 8.27952C8.45362 8.24727 8.046 8.24802 7.64663 8.27952C7.48163 8.29265 7.34475 8.41227 7.30988 8.57427L7.02787 9.88115C6.80512 9.92727 6.58538 9.98577 6.37088 10.0566L5.47463 9.0674C5.36363 8.94477 5.1855 8.90952 5.0355 8.98077C4.65525 9.16152 4.30387 9.3629 3.99112 9.57927C3.855 9.6734 3.79688 9.84552 3.8475 10.0026L4.25662 11.2728C4.08637 11.4246 3.92475 11.5863 3.77287 11.7565L2.50313 11.3474C2.34563 11.2964 2.1735 11.3549 2.07975 11.491C1.86337 11.8038 1.662 12.1551 1.48125 12.5354C1.41 12.685 1.44525 12.8635 1.56788 12.9745L2.55712 13.8708C2.48662 14.0856 2.42775 14.3054 2.38162 14.5281L1.07475 14.8101C0.913125 14.845 0.7935 14.9819 0.78 15.1465C0.76425 15.3464 0.75 15.5463 0.75 15.7499C0.75 15.9535 0.76425 16.1534 0.78 16.3529ZM1.50787 15.484L2.78362 15.2084C2.93438 15.1758 3.04988 15.0543 3.07463 14.902C3.13088 14.5563 3.22163 14.2169 3.34425 13.8929C3.399 13.7489 3.35963 13.5858 3.24525 13.4823L2.28188 12.6093C2.36588 12.4484 2.45362 12.2943 2.54437 12.1484L3.78038 12.5466C3.92663 12.5935 4.08787 12.5466 4.18575 12.4274C4.407 12.1566 4.65675 11.9073 4.9275 11.6856C5.04675 11.5881 5.09438 11.4273 5.04675 11.2803L4.6485 10.0443C4.79437 9.95315 4.94812 9.8654 5.10938 9.78177L5.98238 10.7455C6.08625 10.8599 6.24975 10.8993 6.39337 10.8445C6.71662 10.7219 7.056 10.6311 7.40213 10.5749C7.55438 10.5501 7.67587 10.4346 7.7085 10.2839L7.98375 9.00815C8.16038 8.99877 8.34 8.9984 8.51587 9.00815L8.7915 10.2839C8.82413 10.4346 8.94563 10.5501 9.09787 10.5749C9.44362 10.6311 9.783 10.7219 10.107 10.8445C10.2502 10.8993 10.4138 10.8603 10.5176 10.7455L11.3906 9.78215C11.5515 9.86615 11.7056 9.9539 11.8515 10.0446L11.4532 11.2806C11.406 11.4276 11.4532 11.5881 11.5725 11.686C11.8433 11.9073 12.0926 12.157 12.3143 12.4278C12.4121 12.5474 12.573 12.595 12.7196 12.547L13.9556 12.1488C14.0468 12.2946 14.1345 12.4484 14.2181 12.6093L13.2544 13.4823C13.14 13.5858 13.1006 13.7489 13.1554 13.8933C13.278 14.2165 13.3687 14.5559 13.425 14.902C13.4497 15.0543 13.5653 15.1758 13.716 15.2084L14.9918 15.4836C14.9966 15.5718 15 15.6606 15 15.7499C15 15.8391 14.997 15.928 14.9921 16.0158L13.7164 16.2914C13.5656 16.324 13.4501 16.4455 13.4254 16.5978C13.3691 16.9435 13.2784 17.2829 13.1558 17.6069C13.101 17.7509 13.1404 17.914 13.2548 18.0175L14.2181 18.8905C14.1341 19.0514 14.0464 19.2055 13.9556 19.3514L12.7196 18.9531C12.5722 18.9051 12.4121 18.9528 12.3143 19.0724C12.0934 19.3424 11.8436 19.5921 11.5725 19.8141C11.4532 19.9116 11.406 20.0725 11.4532 20.2191L11.8515 21.4551C11.7056 21.5463 11.5519 21.634 11.391 21.7176L10.518 20.7539C10.4145 20.6395 10.2514 20.6009 10.107 20.6549C9.78375 20.7775 9.44438 20.8683 9.09825 20.9245C8.946 20.9493 8.8245 21.0648 8.79187 21.2155L8.51663 22.4913C8.34 22.5006 8.16038 22.501 7.9845 22.4913L7.70887 21.2155C7.67625 21.0648 7.55475 20.9493 7.4025 20.9245C7.05675 20.8683 6.71737 20.7775 6.39337 20.6549C6.24975 20.6001 6.08625 20.6391 5.98275 20.7539L5.10975 21.7173C4.94887 21.6333 4.79475 21.5455 4.64888 21.4548L5.04712 20.2188C5.09437 20.0718 5.04712 19.9113 4.92788 19.8134C4.65712 19.5921 4.40775 19.3424 4.18613 19.0716C4.08825 18.952 3.927 18.9048 3.78075 18.9524L2.54475 19.3506C2.45362 19.2048 2.36588 19.051 2.28225 18.8898L3.246 18.0168C3.36038 17.9133 3.39975 17.7501 3.345 17.6058C3.22237 17.2825 3.13163 16.9431 3.07538 16.597C3.05063 16.4448 2.93513 16.3233 2.78438 16.2906L1.50787 16.0161C1.50337 15.928 1.5 15.8391 1.5 15.7499C1.5 15.6606 1.503 15.5718 1.50787 15.484Z" fill="black"/>
<path d="M20.3321 6.08818C20.4731 6.04393 20.5751 5.92056 20.592 5.77356C20.6145 5.58418 20.625 5.41281 20.625 5.25006C20.625 5.08731 20.6145 4.91593 20.5924 4.72656C20.5755 4.57956 20.4735 4.45618 20.3325 4.41193L19.2926 4.08531C19.2615 4.00018 19.227 3.91656 19.1891 3.83481L19.6931 2.86918C19.7614 2.73831 19.7464 2.57931 19.6549 2.46306C19.4377 2.18856 19.188 1.93881 18.9127 1.72093C18.7965 1.62906 18.6375 1.61443 18.5066 1.68231L17.5402 2.18631C17.4585 2.14881 17.3749 2.11431 17.2897 2.08318L16.9631 1.04331C16.9189 0.902307 16.7955 0.800307 16.6485 0.783432C16.269 0.739182 15.9806 0.739182 15.6011 0.783432C15.4541 0.800307 15.3307 0.902307 15.2865 1.04331L14.9599 2.08318C14.8748 2.11431 14.7911 2.14881 14.7094 2.18668L13.7438 1.68268C13.6129 1.61481 13.4543 1.62943 13.3376 1.72093C13.0631 1.93806 12.8134 2.18781 12.5955 2.46306C12.5036 2.57931 12.4886 2.73793 12.5569 2.86918L13.0605 3.83481C13.023 3.91656 12.9885 4.00018 12.9574 4.08531L11.9175 4.41193C11.7765 4.45618 11.6745 4.57956 11.6576 4.72656C11.6355 4.91593 11.625 5.08731 11.625 5.25006C11.625 5.41281 11.6355 5.58418 11.6576 5.77356C11.6745 5.92056 11.7765 6.04393 11.9175 6.08818L12.9574 6.41481C12.9885 6.49993 13.023 6.58356 13.0609 6.66531L12.5569 7.63093C12.4886 7.76181 12.5036 7.92081 12.5951 8.03706C12.8123 8.31156 13.062 8.56131 13.3373 8.77918C13.4531 8.87106 13.6125 8.88568 13.7434 8.81781L14.709 8.31418C14.7907 8.35168 14.8744 8.38618 14.9595 8.41731L15.2861 9.45718C15.3304 9.59818 15.4538 9.70018 15.6008 9.71706C15.7909 9.73956 15.9623 9.75006 16.125 9.75006C16.2877 9.75006 16.4591 9.73956 16.6485 9.71743C16.7955 9.70056 16.9189 9.59856 16.9631 9.45756L17.2897 8.41768C17.3749 8.38656 17.4585 8.35206 17.5402 8.31418L18.5059 8.81818C18.6367 8.88643 18.7957 8.87181 18.912 8.77993C19.1865 8.56281 19.4362 8.31306 19.6541 8.03781C19.746 7.92156 19.761 7.76293 19.6927 7.63168L19.1887 6.66606C19.2266 6.58431 19.2611 6.50068 19.2922 6.41556L20.3321 6.08818ZM18.8846 5.75668C18.7661 5.79418 18.6739 5.88756 18.6379 6.00681C18.5869 6.17631 18.5194 6.33943 18.4376 6.49206C18.3787 6.60156 18.3776 6.73318 18.4354 6.84306L18.9113 7.75506C18.8224 7.85368 18.7283 7.94781 18.63 8.03631L17.718 7.56043C17.6078 7.50268 17.4761 7.50418 17.367 7.56268C17.2144 7.64443 17.0513 7.71193 16.8818 7.76293C16.7629 7.79856 16.6691 7.89118 16.6316 8.00968L16.3226 8.99368C16.1858 9.00193 16.0646 9.00193 15.9274 8.99368L15.6184 8.00968C15.5809 7.89118 15.4875 7.79893 15.3682 7.76293C15.1984 7.71193 15.0352 7.64443 14.8834 7.56268C14.7739 7.50381 14.6422 7.50268 14.532 7.56043L13.62 8.03631C13.5214 7.94743 13.4272 7.85331 13.3387 7.75506L13.8146 6.84306C13.872 6.73318 13.8713 6.60118 13.8124 6.49206C13.7306 6.33943 13.6631 6.17631 13.6121 6.00681C13.5765 5.88793 13.4839 5.79418 13.3654 5.75668L12.3814 5.44768C12.3769 5.37906 12.375 5.31343 12.375 5.25006C12.375 5.18668 12.3769 5.12106 12.3814 5.05243L13.3654 4.74343C13.4839 4.70593 13.5761 4.61256 13.6121 4.49331C13.6631 4.32343 13.7306 4.16031 13.8124 4.00843C13.8713 3.89893 13.8724 3.76731 13.8146 3.65706L13.3387 2.74506C13.4276 2.64643 13.5217 2.55231 13.62 2.46381L14.532 2.93968C14.6419 2.99706 14.7739 2.99593 14.883 2.93743C15.0356 2.85568 15.1987 2.78818 15.3682 2.73718C15.4871 2.70156 15.5809 2.60893 15.6184 2.49043L15.9274 1.50643C16.0642 1.49818 16.1854 1.49818 16.3226 1.50643L16.6316 2.49043C16.6691 2.60893 16.7625 2.70118 16.8818 2.73718C17.0516 2.78818 17.2148 2.85568 17.3666 2.93743C17.4761 2.99631 17.6078 2.99743 17.718 2.93968L18.63 2.46381C18.7286 2.55268 18.8228 2.64681 18.9113 2.74506L18.4354 3.65706C18.378 3.76693 18.3787 3.89893 18.4376 4.00806C18.5194 4.16068 18.5869 4.32381 18.6379 4.49331C18.6735 4.61218 18.7661 4.70593 18.8846 4.74343L19.8686 5.05243C19.8731 5.12106 19.875 5.18668 19.875 5.25006C19.875 5.31343 19.8731 5.37906 19.8686 5.44768L18.8846 5.75668Z" fill="black"/>
<path d="M22.9733 13.1115L22.329 12.8827C22.2922 12.7781 22.2503 12.6757 22.2026 12.5763L22.4955 11.9595C22.5566 11.8312 22.5398 11.6797 22.452 11.568C22.2645 11.3283 22.0477 11.1112 21.8074 10.923C21.6953 10.8352 21.543 10.8187 21.4155 10.8795L20.7983 11.1723C20.6993 11.1251 20.5969 11.0827 20.4922 11.0463L20.2631 10.4021C20.2155 10.2682 20.0959 10.1726 19.9549 10.1553C19.6208 10.1152 19.3789 10.1152 19.0447 10.1553C18.9037 10.1722 18.7841 10.2678 18.7365 10.4021L18.5078 11.0463C18.4031 11.0831 18.3007 11.1251 18.2014 11.1727L17.5845 10.8798C17.457 10.8191 17.3051 10.836 17.193 10.9233C16.9534 11.1108 16.7362 11.3276 16.548 11.568C16.4606 11.6797 16.4438 11.8316 16.5045 11.9598L16.7974 12.5771C16.7501 12.6761 16.7078 12.7785 16.6714 12.8831L16.0271 13.1122C15.8932 13.1598 15.7976 13.2795 15.7804 13.4205C15.7598 13.5866 15.75 13.7355 15.75 13.875C15.75 14.0145 15.7598 14.163 15.78 14.3298C15.7969 14.4708 15.8925 14.5905 16.0267 14.6381L16.671 14.8668C16.7078 14.9715 16.7497 15.0738 16.7974 15.1732L16.5045 15.7901C16.4434 15.9183 16.4602 16.0698 16.548 16.1816C16.7355 16.4212 16.9523 16.6383 17.1926 16.8266C17.3044 16.914 17.4566 16.9308 17.5845 16.8701L18.2017 16.5772C18.3007 16.6245 18.4031 16.6668 18.5078 16.7032L18.7369 17.3475C18.7845 17.4813 18.9041 17.577 19.0451 17.5942C19.212 17.6152 19.3605 17.625 19.5 17.625C19.6395 17.625 19.788 17.6152 19.9549 17.595C20.0959 17.5781 20.2155 17.4825 20.2631 17.3482L20.4919 16.704C20.5965 16.6672 20.6989 16.6252 20.7983 16.5776L21.4151 16.8705C21.543 16.9316 21.6953 16.9151 21.8066 16.827C22.0463 16.6395 22.2634 16.4227 22.4516 16.1823C22.539 16.0706 22.5559 15.9187 22.4951 15.7905L22.2023 15.1732C22.2495 15.0742 22.2919 14.9718 22.3282 14.8672L22.9725 14.6381C23.1064 14.5905 23.202 14.4708 23.2192 14.3298C23.2402 14.163 23.25 14.0145 23.25 13.875C23.25 13.7355 23.2402 13.587 23.22 13.4201C23.2031 13.2787 23.1075 13.1595 22.9733 13.1115ZM22.4963 14.0118L21.9019 14.223C21.7867 14.2638 21.6986 14.3583 21.666 14.4761C21.6169 14.6542 21.5468 14.8241 21.4579 14.9812C21.3979 15.0873 21.3934 15.2163 21.4455 15.3266L21.7147 15.894C21.6525 15.9622 21.5872 16.0275 21.5194 16.0893L20.952 15.8201C20.8425 15.768 20.7131 15.7725 20.6066 15.8325C20.4491 15.9217 20.2792 15.9915 20.1019 16.0406C19.9841 16.0732 19.8896 16.1613 19.8484 16.2765L19.6373 16.8708C19.5465 16.8757 19.4543 16.8757 19.3635 16.8708L19.1524 16.2765C19.1115 16.1613 19.017 16.0732 18.8992 16.0406C18.7211 15.9915 18.5512 15.9213 18.3941 15.8325C18.288 15.7728 18.1594 15.7683 18.0488 15.8201L17.4814 16.0893C17.4131 16.0271 17.3479 15.9618 17.286 15.894L17.5552 15.3266C17.6077 15.2163 17.6029 15.0873 17.5429 14.9812C17.4536 14.8237 17.3839 14.6538 17.3348 14.4765C17.3021 14.3587 17.214 14.2642 17.0989 14.223L16.5045 14.0118C16.5015 13.9665 16.5 13.9211 16.5 13.875C16.5 13.8288 16.5015 13.7831 16.5037 13.7381L17.0981 13.5266C17.2133 13.4857 17.3014 13.3912 17.3336 13.2735C17.3831 13.095 17.4532 12.9255 17.5421 12.7683C17.6021 12.6622 17.6066 12.5332 17.5545 12.423L17.2853 11.8556C17.3475 11.7873 17.4128 11.7221 17.4806 11.6602L18.048 11.9295C18.1582 11.982 18.2873 11.9775 18.3934 11.9171C18.5509 11.8278 18.7208 11.7581 18.8981 11.709C19.0159 11.6763 19.1104 11.5882 19.1516 11.4731L19.3627 10.8787C19.4535 10.8738 19.5457 10.8738 19.6365 10.8787L19.8476 11.4731C19.8885 11.5882 19.983 11.6763 20.1008 11.709C20.2789 11.7581 20.4488 11.8282 20.6059 11.9171C20.7124 11.9775 20.841 11.982 20.9512 11.9295L21.5186 11.6602C21.5869 11.7225 21.6521 11.7877 21.714 11.8556L21.4448 12.423C21.3923 12.5332 21.3971 12.6622 21.4571 12.7683C21.5464 12.9258 21.6161 13.0957 21.6652 13.2731C21.6979 13.3908 21.786 13.4853 21.9011 13.5266L22.4955 13.7377C22.4985 13.7835 22.5 13.8288 22.5 13.875C22.5 13.9211 22.4985 13.9665 22.4963 14.0118Z" fill="black"/>
<path d="M8.25 19.875C10.5244 19.875 12.375 18.0244 12.375 15.75C12.375 13.4756 10.5244 11.625 8.25 11.625C5.97563 11.625 4.125 13.4756 4.125 15.75C4.125 18.0244 5.97563 19.875 8.25 19.875ZM8.25 12.375C10.1108 12.375 11.625 13.8893 11.625 15.75C11.625 17.6108 10.1108 19.125 8.25 19.125C6.38925 19.125 4.875 17.6108 4.875 15.75C4.875 13.8893 6.38925 12.375 8.25 12.375Z" fill="black"/>
<path d="M0.758255 9.50961L1.33425 9.98999C3.05138 7.93086 5.57176 6.74999 8.25001 6.74999C8.44088 6.74999 8.63138 6.76086 8.82188 6.77286L8.35988 7.23486L8.89013 7.76511L10.0151 6.64011C10.1618 6.49349 10.1618 6.25649 10.0151 6.10986L8.89013 4.98486L8.35988 5.51511L8.8695 6.02474C8.66326 6.01161 8.45663 5.99999 8.25001 5.99999C5.34901 5.99999 2.61826 7.27911 0.758255 9.50961Z" fill="black"/>
<path d="M16.125 3.375C15.0911 3.375 14.25 4.21613 14.25 5.25C14.25 6.28387 15.0911 7.125 16.125 7.125C17.1589 7.125 18 6.28387 18 5.25C18 4.21613 17.1589 3.375 16.125 3.375ZM16.125 6.375C15.5048 6.375 15 5.87025 15 5.25C15 4.62975 15.5048 4.125 16.125 4.125C16.7452 4.125 17.25 4.62975 17.25 5.25C17.25 5.87025 16.7452 6.375 16.125 6.375Z" fill="black"/>
<path d="M19.5 12.375C18.6727 12.375 18 13.0477 18 13.875C18 14.7023 18.6727 15.375 19.5 15.375C20.3273 15.375 21 14.7023 21 13.875C21 13.0477 20.3273 12.375 19.5 12.375ZM19.5 14.625C19.0864 14.625 18.75 14.2886 18.75 13.875C18.75 13.4614 19.0864 13.125 19.5 13.125C19.9136 13.125 20.25 13.4614 20.25 13.875C20.25 14.2886 19.9136 14.625 19.5 14.625Z" fill="black"/>
<path d="M22.9485 1.88253L21.0735 1.50753C20.8695 1.46628 20.6726 1.59866 20.6321 1.80153L20.2571 3.67653L20.9925 3.82391L21.1946 2.81441C21.558 3.57041 21.75 4.40366 21.75 5.25003C21.75 6.54303 21.3233 7.75878 20.5163 8.76566L21.1016 9.23478C22.0035 8.10941 22.5 6.69453 22.5 5.25003C22.5 4.26791 22.2731 3.29966 21.8415 2.42591L22.8015 2.61791L22.9485 1.88253Z" fill="black"/>
</g>
<defs>
<clipPath id="clip0_34_457">
<rect width="24" height="24" fill="white"/>
</clipPath>
</defs>
</svg>
